<?xml version="1.0" encoding="utf-8"?>
<!-- Generator: Adobe Illustrator 27.0.0, SVG Export Plug-In . SVG Version: 6.00 Build 0)  -->
<svg version="1.1" id="Layer_2_00000121975698384682523540000010390251064568620448_"
	 xmlns="http://www.w3.org/2000/svg" xmlns:xlink="http://www.w3.org/1999/xlink" x="0px" y="0px" viewBox="0 0 2758.9 936.9"
	 style="enable-background:new 0 0 2758.9 936.9;" xml:space="preserve">
<style type="text/css">
	.st0{fill:#92FEC2;}
</style>
<g id="Layer_1-2">
	<path class="st0" d="M913.1,0h44c1,1.3,2.4,1,3.7,1c9.3,0.2,18.6,0.4,27.9,0.9c19.4,1,38.8,2.9,58,5.5c32.9,4.5,65.4,11,97.6,19.5
		c54.8,14.5,107.7,34,159.1,57.6c32.8,15,64.4,32.5,95.3,51.1c50.2,30.2,210.2,128.6,228.5,140c23.6,14.8,47.1,29.8,70.8,44.4
		c37.8,23.3,75.3,47.2,114.5,68.4c22.4,12.1,45,23.5,69,32c30.4,10.7,61.5,15.8,93.8,12.9c18.7-1.7,153.2-17.3,200.1,78.7
		c98.2-91.5,296.9-8.9,343.8,113.9c107.2,27.9,158.8,152,167.4,151.8c0,0-618.7-66.3-628.3-65c-10.1,1.4-19.6,4.8-29.2,8
		c-21.6,7.1-41.9,16.4-59.3,31.3c-8,6.9-17.5,10-28.4,10c-16.7,0-32.9-3.3-49.3-5.7c-10.3-1.5-20.8-2.8-31.2-2.3
		c-13.2,0.7-26.4,1.7-39.3,4.9c-11.1,2.7-22.2,5.2-32.9,9.3c-8.1,3.2-16.2,7.1-24.9,8.4c-12.6,1.8-25.1,0.2-37.4-2.7
		c-10.3-2.4-20.6-4.8-30.9-7.2c-16.3-3.8-32.7-6.8-49.4-8.3c-13.8-1.3-27.5-0.6-41.2,1c-10,1.2-19.6,5-29.4,7
		c-12.3,2.4-24.9,3.7-37.5,4.2c-14.2,0.5-28.5,1.6-42.8,0.4c-20.8-1.7-41.6-2.6-61.3-10.3c-11.1-4.4-22.7-7.9-33-14.2
		c-20.1-12.5-40-25.4-61.1-36.2c-32.6-16.7-65.1-33.5-99-47.4c-15.5-6.3-30.9-12.6-47.2-16.8c-16.5-4.3-32.9-9-49.4-13.2
		c-17.5-4.4-35.2-7.8-53-10.8c-9-1.5-17.9-3.5-26.9-4.4c-9.7-1-19.5-1.5-28.9-3.8c-14.3-3.5-28.8-4.1-43.3-5
		c-14.3-0.9-28.6,0.9-42.9,0.9c-9,0-17.9,1.2-26.9,1.4c-3.6,0-7.3,0.4-10.9,1.1c-9.6,1.9-19.3,2.9-29,3.6c-11.1,0.8-22.2,1.9-33,4.4
		c-23.5,5.4-46.4,13.3-68.9,21.9c-23.6,9-47.4,9.2-71.4,4.2c-12.4-2.6-24.4-7.2-36.8-10.1c-13.5-3.2-27.1-5.2-40.8-5.3
		c-21.8-0.1-43,4.9-63.9,11c-16.1,4.7-32.5,4-48.8,2.2c-13.7-1.5-27.1-4.3-41-4.5c-17.1-0.2-34.1,1.9-51,4.2
		c-14.4,1.9-28.7,4.7-42.6,8.9c-12,3.6-23.9,7.8-35.5,12.5c-13.2,5.3-25.9,11.6-37.3,20.3c-8,6.2-16.1,12.6-25.6,16.7
		c-7.1,3.1-13.7,7.2-20.2,11.4c-26.6,17.2-47,40.4-65.4,65.7c-12.3,16.9-21.9,35.5-33,53.2c-12.3,19.6-26.2,37.8-44.4,52.4
		c-11.5,9.3-24.5,15-39.3,15.5c-10.8,0.4-21.6-0.2-32.4,1c-15.1,1.7-28.7,6.8-38.5,18.9c-3.7,4.5-8.6,9.1-7.4,16.1
		c-8.1,1.3-4.1-4.9-5-8c0.9-0.4,0.9-1.3,1.2-2c3.5-10.5,10.1-18.7,20.1-23.3c16-7.4,33-10.9,50.7-10.4c8.7,0.2,16.9-1.1,24.9-4.1
		c8.1-3.1,14.2-8,16.5-16.9c2.6-10.2,3.6-20.5,3.8-30.9c0.2-8.7-0.7-17.3,0.5-25.9c1.7-11.9,1.7-24,3-35.9c0.3-2.7-0.8-6.1,0.5-7.8
		c3-3.7,4-8.2,5.8-12.3c3.8-8.5,5.4-18.1,13.3-24.3c0.6-0.5,0.8-1.4,1-2.2c0.8-4.3,3.9-6.8,6.9-9.4c6.6-5.9,14.2-10.3,21.7-14.9
		c7.8-4.9,16.2-7.8,25.2-9.7c5-1.1,10.2-1.1,15.2-3c4.8-1.8,9.8-3.3,14.8-4.8c6.8-2.1,13.5-4.6,19.7-8c7.4-4,14.8-8.3,21.2-13.9
		c8.5-7.3,16.6-15,23.5-23.8c6-7.8,11.4-16.1,16.9-24.3c4.8-7.1,9.9-14.4,11.4-23c1.8-10.9,4.3-21.7,3.5-33
		c-0.4-5.8-1.8-11.5-2-17.2c-0.6-12-3-23.6-5-35.3c-1.4-8.6-3.6-17-5.9-25.5c-3-10.6-2.5-21.7-2.9-32.6c-0.4-9.9-0.1-19.9,0.6-29.9
		c0.9-12.9,2.2-25.8,4.6-38.5c6.4-33.3,17.6-64.9,34-94.7c16.6-30.1,37.4-57.1,61.1-81.9c14.5-15.1,30.3-28.8,46.6-41.9
		c33.4-26.8,69.6-49.1,107.5-68.9c20.5-10.7,41.5-20.2,62.7-29.4c21.2-9.1,42.9-17,64.3-25.5c28.8-11.4,59.1-18.6,89.4-25.4
		c24.9-5.5,50-9.9,75.3-12.8c19.2-2.2,38.5-4.4,58-4.2C910.8,1.1,912.3,1.4,913.1,0L913.1,0z"/>
</g>
</svg>
