<?xml version="1.0" encoding="utf-8"?>
<!-- Generator: Adobe Illustrator 27.0.0, SVG Export Plug-In . SVG Version: 6.00 Build 0)  -->
<svg version="1.1" id="Layer_2_00000011752283995038507350000015450891295785123746_"
	 xmlns="http://www.w3.org/2000/svg" xmlns:xlink="http://www.w3.org/1999/xlink" x="0px" y="0px" viewBox="0 0 992 189.2"
	 style="enable-background:new 0 0 992 189.2;" xml:space="preserve">
<style type="text/css">
	.st0{fill:#FEC496;}
</style>
<g id="Layer_1-2">
	<path class="st0" d="M460.2,183c-6.5-1.9-11.5-6.1-15-11.5c-13.7-21.5-32.6-33.5-58.6-33.5c-2.2,0-4.7,0.3-6.3-1
		c-4.7-3.9-9.9-3-15.3-2.9c-11.8,0.2-23.3-3.5-35.2-3c-7.9,0.3-15.4,1.9-22.5,5.3c-9.4,4.5-19.7,5.9-29.8,7.6
		c-12.8,2.2-41.4,17.2-60.4-4.8c-33,46-84.2-1.3-92-3c-40,22-82.8-6.3-86.5-6.9c-13-1.9-26.2-3.8-37.6,5.6c-0.2,0.2-0.6,0.1-1,0.2
		c0-0.3,0-0.7,0-1c4.8-6.7,12.1-9.3,19.6-8.7c12.7,0.9,22.1-4.5,30.5-13c12-12.4,25-23.3,41.4-29.7c14.7-5.7,29.7-7.6,44.9-4.4
		c9,1.9,17.8,5.3,26.5,8.5c5.1,1.9,9.3,1.1,13.6-1.8c5.1-3.4,10.4-6.2,16.8-7.1c8.4-1.2,16.7-0.1,24.5,2.4
		c8.8,2.8,16.2,0.6,23.1-3.9C250.1,70.6,383,2,519,71.2c44-23,74-17,114,17c32-53,132-57,163-18c54-82,145-50,183-11
		C965,172.2,706,207.2,460.2,183z"/>
</g>
</svg>
