<?xml version="1.0" encoding="utf-8"?>
<!-- Generator: Adobe Illustrator 27.0.0, SVG Export Plug-In . SVG Version: 6.00 Build 0)  -->
<svg version="1.1" id="Layer_2_00000160875251300996006800000014648087763267786894_"
	 xmlns="http://www.w3.org/2000/svg" xmlns:xlink="http://www.w3.org/1999/xlink" x="0px" y="0px" viewBox="0 0 919.9 256"
	 style="enable-background:new 0 0 919.9 256;" xml:space="preserve">
<style type="text/css">
	.st0{fill:#FE9FD3;}
</style>
<g id="Layer_1-2">
	<path class="st0" d="M0,33.2c11.4-8.9,25.1-8.8,37.8-6.4c15.4,2.8,29.3-0.1,43.3-5.2c22.6-8.1,45.6-13.7,69.7-11.2
		c17.5,1.8,34.3,6.4,49.1,16.4c7.9,5.4,15.5,5.6,24.1,0.6c17.4-10,35.3-11.6,53.5-1.3c5.6,3.2,11.7,1.7,16.6-2.8
		C308.3,10.4,325,2.5,344,0.5c15.2-1.6,30.2,0.3,43.9,8c10.9,6.1,27,8.3,47,9.5c33.7,2.1,50-15.6,82.1-4.9
		c21.2,7.1,41.1,16.7,56.8,23.9c20.2,9.2,44.3,10.5,63.3-0.9c49.9-30,93.3-4.8,124.9,1c16.3,3,80.3,8.6,110-27c0,0,0.1,62-45.3,91.7
		c-12,1.6-15.8,11.1-14.4,23.2c1.3,11,4.6,21.7,6.9,32.6c1.7,8.2-2.6,18.6-9.1,22.8c-6.1,4-17.1,4.2-22.7-0.3
		c-8.1-6.6-15.7-13.7-13.4-25.8c2.8-14.4,2.1-28.4-3.9-41.9c-2.8-6.3-7.1-11.1-14.1-12.2c-14.1-2.2-15.4-0.6-24.9,11.4
		c-7.6,9.6-16.8,14.1-29,12.8c-3.2-0.3-6.2-0.8-9.3-1.6c-5.6-1.5-11.2-2.6-17.1-1.5c-11.1,2.1-15.8,3-16.1,15.8c0,2-0.5,4-1,5.9
		c-1.6,5.5-5,9.8-10.6,10.9c-5.4,1-9.3-2.4-12.4-6.8c-3.5-4.9-3-10.4-2.5-15.9c0.5-6.1-1.2-9-6.9-11c-6.3-2.1-12.5-0.8-18.6,0.9
		c-5.6,1.6-8.5,5.4-8.9,11.2c-0.9,13.4-2.6,26.7-1,40.2c1.6,13.3,2.8,26.7,4.7,40c1.2,8.5,0.4,17.1-0.2,25.4
		c-0.5,8.1-5,15-13.5,18.2h-7c-10.7-4.4-13.4-13.3-14-23.6c-0.6-9.5,2.3-18.8,2.2-28.3c-0.1-4.4-0.6-8.3-3.5-11.6
		c-3.8-4.3-4.2-9.4-3.3-14.6c0.6-3.3,0.7-6.6,0.7-9.9c0-4.9-2.1-8.5-6.6-10.8c-6.3-3.2-6.5-4.7-5.8-11.9c0.7-6.9,0.4-13.9,0.3-20.9
		c-0.1-4.1-3-6.1-6.7-7c-4.5-1.1-7.3,1.3-7.3,6c0,4.6,2.4,8.6,3.3,13c1.1,5.2-0.8,11.9-4.7,14.3c-3.8,2.3-7.9,2.5-11.8,0
		c-4.5-2.9-6.6-8.4-5.4-14c1.1-5.2,3-10.1,2.7-15.6c-0.6-10.2-5.1-15-15.2-14.9c-9.6,0.1-19.2,0.2-27.1-6.2
		c-4.2-3.4-7.9-7.6-11.9-11.4c-6-5.9-11.6-6.6-18.8-2.4c-8.5,4.9-14,3.8-20.1-4.3c-3.4-4.6-6.4-9.4-13.4-8.7c-3.3,0.3-6,1.2-8.5,3.5
		c-10.2,9.5-18.9,9.6-30.2,1.4c-8-5.8-14.2-13.5-21.1-20.4c-4.5-4.6-8.6-4.5-13.5-0.2c-7.4,6.5-10,15.6-13.5,24.1
		c-2.7,6.8-4.7,13.8-7.4,20.6c-5.2,12.8-19.2,17.6-30.3,10.1c-6.9-4.6-9.6-12-11-19.9c-0.5-2.8-0.8-5.6-1.1-8.4
		c-1.2-9.6-10-13.7-17.9-8.3c-4.3,2.9-8,6.5-11.1,10.7c-13.7,18.6-38.7,18.3-53.9,0.1c-5.9-7.1-9.1-15.9-14.9-22.9
		c-13-15.6-42.4-27.1-65.5-15C95.7,59,75.1,60.4,55.2,47.6c-3.5-2.3-6-5.8-9.2-8.4c-9.9-8.1-20.3-14-33.7-8.8
		c-2.7,1.1-5,2.6-7.3,4.3c-2,1.5-3.5,1.4-5.2-0.3L0,33.2L0,33.2z"/>
</g>
</svg>
