<?xml version="1.0" encoding="utf-8"?>
<!-- Generator: Adobe Illustrator 27.0.0, SVG Export Plug-In . SVG Version: 6.00 Build 0)  -->
<svg version="1.1" id="Layer_2_00000122715502809563341130000008350922727773142401_"
	 xmlns="http://www.w3.org/2000/svg" xmlns:xlink="http://www.w3.org/1999/xlink" x="0px" y="0px" viewBox="0 0 2716.9 583.8"
	 style="enable-background:new 0 0 2716.9 583.8;" xml:space="preserve">
<style type="text/css">
	.st0{fill:#FEE56A;}
</style>
<g id="Layer_1-2">
	<path class="st0" d="M1969,504.3c-95.5,67.7-352.7,122.8-707.7-2.2c-16.7-5.9-247.8-60.3-634-11.2
		c-107.2,104.9-281.3,4.5-303.6-33.5c-26.8,53.6-26.8,89.3-142.9,82.6c-88,38.2-175.4,38.8-177.4,43.7c-6,0.5,63.4-24.6,94.8-54.9
		c13.2-30.4,4.5-67,64.1-69.2C145,245.4,352.6,218.6,430.7,254.3c8.9-64.7,252.3-163,372.8,4.5c113.9-111.6,470.4-212.1,665.3-4.5
		C1886.4,0,2422.2,192.1,2545,401.6C2545,401.6,2310.5,620.4,1969,504.3z"/>
</g>
</svg>
