<?xml version="1.0" encoding="UTF-8"?>
<svg id="Layer_2" data-name="Layer 2" xmlns="http://www.w3.org/2000/svg" viewBox="0 0 1000 316">
  <defs>
    <style>
      .cls-1 {
        fill: #fefefe;
      }

      .cls-2 {
        fill: #fe9fd3;
      }
    </style>
  </defs>
  <g id="Layer_1-2" data-name="Layer 1">
    <g>
      <path class="cls-1" d="M582,315.9c-192.34,0-384.67-.01-577.01,.1-3.82,0-5-.44-4.99-4.73C.18,238.87,.13,166.47,.13,94.06c1.65,1.66,3.24,1.74,5.2,.26,2.24-1.69,4.58-3.25,7.26-4.31,13.4-5.26,23.86,.69,33.72,8.76,3.21,2.63,5.64,6.14,9.18,8.42,19.82,12.81,40.46,11.41,60.17,1.09,23.11-12.1,52.5-.61,65.51,14.97,5.85,7.01,9.01,15.84,14.95,22.91,15.28,18.19,40.26,18.44,53.95-.15,3.08-4.18,6.81-7.75,11.08-10.7,7.93-5.47,16.76-1.37,17.93,8.26,.34,2.8,.61,5.61,1.09,8.39,1.37,7.9,4.08,15.3,11,19.95,11.12,7.46,25.14,2.71,30.34-10.13,2.74-6.76,4.68-13.85,7.42-20.61,3.48-8.57,6.1-17.67,13.47-24.13,4.9-4.3,8.91-4.37,13.46,.22,6.89,6.94,13.01,14.61,21.06,20.44,11.33,8.22,20.04,8.07,30.24-1.39,2.48-2.3,5.17-3.16,8.5-3.46,6.96-.63,9.98,4.19,13.39,8.74,6.05,8.09,11.62,9.26,20.09,4.34,7.23-4.2,12.8-3.48,18.84,2.41,3.93,3.84,7.61,7.97,11.85,11.42,7.91,6.45,17.5,6.34,27.06,6.21,10.07-.14,14.58,4.68,15.2,14.9,.33,5.51-1.53,10.45-2.67,15.6-1.24,5.63,.91,11.08,5.38,13.97,3.89,2.52,7.95,2.38,11.75,.04,3.92-2.41,5.81-9.08,4.69-14.29-.93-4.37-3.3-8.36-3.34-12.96-.04-4.66,2.78-7.09,7.28-5.98,3.65,.9,6.6,2.93,6.71,7,.18,6.98,.43,14.01-.26,20.93-.73,7.23-.53,8.75,5.79,11.93,4.51,2.27,6.66,5.87,6.64,10.8,0,3.31-.08,6.6-.67,9.92-.92,5.19-.5,10.28,3.29,14.56,2.92,3.29,3.49,7.25,3.55,11.59,.12,9.5-2.76,18.72-2.2,28.26,.61,10.37,3.33,19.3,13.98,23.65Z"/>
      <path class="cls-1" d="M.13,93.06C.13,63.6,.2,34.13,.04,4.67,.02,1.02,.73,.03,4.58,.03c331.11,.11,662.21,.1,993.32,.1-3.49,11.74-11.93,17.21-23.55,19.1-15.64,2.55-30.98,6.42-44.87,14.3-5.08,2.88-11.04,5.32-14,10.75-3.33,6.11-8.24,9.56-14.79,10.6-19.46,3.1-35.66,12.26-49.21,26.26-3.92,4.05-7.89,6.73-13.9,6.16-3.2-.3-6.53,.83-9.8,1.3-13.75,1.97-23.59,10.14-32.05,20.36-7.42,8.96-15.41,13.24-27.91,9.23-17.7-5.69-36.15-4.86-52.95,3.3-16.47,8-32.94,8.89-50.36,5.59-12.95-2.45-25.81-5.45-39.26-4.19-16.74,1.58-32.24,5.98-45.58,16.67-2.19,1.75-4.72,3.12-7.2,4.47-7.15,3.88-11.33,2.61-15.7-4.26-6.57-10.32-14.54-19.59-24.32-26.84-14.53-10.77-31.74-13.82-49.34-14.72-4.85-.25-8.95-1.16-12.91-4.17-6.78-5.16-14.73-7.54-23.22-7.95-21.1-1.04-40.6-7.42-58.93-17.65-13.74-7.67-28.71-9.61-43.91-8-18.97,2.01-35.66,9.9-49.9,22.77-4.89,4.42-10.92,5.92-16.56,2.76-18.26-10.25-36.18-8.69-53.54,1.31-8.66,4.99-16.21,4.82-24.14-.57-14.82-10.06-31.61-14.63-49.08-16.43-24.14-2.49-47.17,3.08-69.74,11.18-14,5.02-27.89,7.94-43.3,5.15-12.69-2.3-26.37-2.5-37.77,6.45Z"/>
      <path class="cls-2" d="M.13,93.06c11.41-8.95,25.09-8.75,37.77-6.45,15.41,2.79,29.3-.13,43.3-5.15,22.57-8.09,45.6-13.67,69.74-11.18,17.47,1.8,34.26,6.37,49.08,16.43,7.94,5.39,15.49,5.56,24.14,.57,17.37-10.01,35.28-11.56,53.54-1.31,5.64,3.17,11.67,1.67,16.56-2.76,14.24-12.87,30.93-20.76,49.9-22.77,15.2-1.61,30.17,.33,43.91,8,18.33,10.23,37.83,16.6,58.93,17.65,8.49,.42,16.44,2.79,23.22,7.95,3.95,3.01,8.06,3.93,12.91,4.17,17.6,.89,34.81,3.95,49.34,14.72,9.78,7.25,17.75,16.52,24.32,26.84,4.37,6.87,8.55,8.14,15.7,4.26,2.48-1.35,5.01-2.71,7.2-4.47,13.34-10.7,28.84-15.09,45.58-16.67,13.45-1.27,26.31,1.73,39.26,4.19,17.42,3.3,33.89,2.4,50.36-5.59,16.8-8.16,35.24-8.98,52.95-3.3,12.5,4.01,20.49-.26,27.91-9.23,8.46-10.22,18.3-18.39,32.05-20.36,3.27-.47,6.6-1.61,9.8-1.3,6.01,.57,9.98-2.12,13.9-6.16,13.55-14,29.75-23.16,49.21-26.26,6.55-1.05,11.46-4.5,14.79-10.6,2.96-5.43,8.92-7.87,14-10.75,13.89-7.88,29.23-11.76,44.87-14.3,11.62-1.89,20.06-7.37,23.55-19.1,2.49-.63,1.99,1.17,1.99,2.5,.01,9.16,0,18.32,0,27.48-1.65,1.48-1.49,3.67-1.79,5.51-1.42,8.77-4.21,17.09-8.06,25.04-11.1,22.93-29.24,38.77-51.4,50.47-8.22,4.34-16.36,8.9-25.92,9.74-4.75,.42-9.93-.2-14.09,2.17-6.6,3.76-13.5,6.34-20.83,8.02-5.03,1.15-8.88,3.97-10.76,8.8-5.02,12.88-14.63,20.08-27.99,21.85-12.04,1.59-15.8,11.13-14.39,23.16,1.29,10.97,4.61,21.69,6.86,32.56,1.7,8.17-2.57,18.6-9.08,22.84-6.11,3.98-17.1,4.25-22.69-.28-8.11-6.56-15.73-13.71-13.4-25.84,2.76-14.35,2.13-28.39-3.86-41.95-2.79-6.31-7.14-11.11-14.08-12.21-14.09-2.23-27.5-.6-37.02,11.37-7.64,9.6-16.84,14.09-29.04,12.76-3.16-.34-6.24-.82-9.29-1.63-5.62-1.5-11.17-2.61-17.11-1.48-11.1,2.11-15.81,3-16.1,15.84-.04,1.97-.47,3.97-1.02,5.87-1.6,5.49-5.01,9.83-10.64,10.85-5.38,.97-9.29-2.4-12.38-6.76-3.51-4.95-2.96-10.41-2.51-15.86,.5-6.1-1.18-9.02-6.86-10.96-6.31-2.15-12.48-.8-18.58,.93-5.59,1.59-8.55,5.39-8.93,11.24-.87,13.38-2.57,26.73-.98,40.17,1.58,13.32,2.82,26.69,4.66,39.97,1.18,8.53,.36,17.06-.16,25.43-.51,8.06-5.04,15.04-13.46,18.19h-7c-10.65-4.35-13.37-13.29-13.98-23.65-.56-9.54,2.32-18.76,2.2-28.26-.06-4.35-.63-8.3-3.55-11.59-3.79-4.28-4.21-9.37-3.29-14.56,.59-3.32,.66-6.61,.67-9.92,.01-4.93-2.14-8.53-6.64-10.8-6.32-3.18-6.52-4.7-5.79-11.93,.7-6.92,.44-13.95,.26-20.93-.1-4.07-3.05-6.1-6.71-7-4.5-1.11-7.32,1.32-7.28,5.98,.04,4.61,2.41,8.59,3.34,12.96,1.11,5.21-.77,11.87-4.69,14.29-3.8,2.34-7.86,2.47-11.75-.04-4.47-2.89-6.62-8.35-5.38-13.97,1.14-5.16,3-10.09,2.67-15.6-.62-10.22-5.13-15.04-15.2-14.9-9.57,.13-19.16,.24-27.06-6.21-4.24-3.45-7.92-7.59-11.85-11.42-6.03-5.89-11.61-6.61-18.84-2.41-8.47,4.92-14.04,3.75-20.09-4.34-3.41-4.55-6.42-9.37-13.39-8.74-3.33,.3-6.03,1.16-8.5,3.46-10.2,9.46-18.92,9.61-30.24,1.39-8.04-5.83-14.16-13.5-21.06-20.44-4.55-4.59-8.56-4.51-13.46-.22-7.36,6.46-9.99,15.55-13.47,24.13-2.74,6.76-4.69,13.84-7.42,20.61-5.2,12.84-19.22,17.59-30.34,10.13-6.92-4.64-9.63-12.04-11-19.95-.48-2.77-.75-5.59-1.09-8.39-1.17-9.63-10-13.73-17.93-8.26-4.27,2.95-8,6.52-11.08,10.7-13.69,18.58-38.67,18.33-53.95,.15-5.94-7.06-9.1-15.9-14.95-22.91-13-15.58-42.4-27.07-65.51-14.97-19.71,10.32-40.35,11.72-60.17-1.09-3.54-2.28-5.97-5.79-9.18-8.42-9.86-8.08-20.32-14.03-33.72-8.76-2.69,1.05-5.02,2.61-7.26,4.31-1.96,1.48-3.54,1.4-5.2-.26v-1Z"/>
      <path class="cls-1" d="M589,315.9c8.42-3.16,12.95-10.13,13.46-18.19,.53-8.38,1.34-16.91,.16-25.43-1.84-13.28-3.08-26.65-4.66-39.97-1.6-13.45,.11-26.79,.98-40.17,.38-5.85,3.34-9.65,8.93-11.24,6.1-1.74,12.27-3.09,18.58-.93,5.68,1.94,7.36,4.86,6.86,10.96-.45,5.45-1,10.92,2.51,15.86,3.1,4.36,7.01,7.73,12.38,6.76,5.63-1.02,9.04-5.36,10.64-10.85,.55-1.9,.98-3.9,1.02-5.87,.29-12.84,5-13.73,16.1-15.84,5.94-1.13,11.49-.01,17.11,1.48,3.05,.81,6.13,1.29,9.29,1.63,12.21,1.33,21.41-3.16,29.04-12.76,9.52-11.98,22.94-13.6,37.02-11.37,6.94,1.1,11.29,5.9,14.08,12.21,5.99,13.56,6.62,27.6,3.86,41.95-2.33,12.13,5.29,19.27,13.4,25.84,5.59,4.53,16.58,4.26,22.69,.28,6.5-4.24,10.77-14.66,9.08-22.84-2.25-10.87-5.58-21.59-6.86-32.56-1.41-12.03,2.35-21.57,14.39-23.16,13.36-1.77,22.97-8.96,27.99-21.85,1.88-4.83,5.73-7.65,10.76-8.8,7.33-1.67,14.23-4.26,20.83-8.02,4.16-2.37,9.34-1.75,14.09-2.17,9.56-.84,17.7-5.4,25.92-9.74,22.16-11.7,40.29-27.55,51.4-50.47,3.85-7.95,6.64-16.26,8.06-25.04,.3-1.84,.14-4.03,1.79-5.51,0,93.93-.02,187.87,.1,281.8,0,3.42-.67,4.09-4.09,4.09-135.64-.11-271.27-.09-406.91-.09Z"/>
    </g>
  </g>
</svg>